<?xml version="1.0" encoding="UTF-8"?>
<svg version="1.1" xmlns="http://www.w3.org/2000/svg" width="512" height="512">
<path d="M0 0 C0.73734375 0.63679688 1.4746875 1.27359375 2.234375 1.9296875 C3.01296875 2.58710938 3.7915625 3.24453125 4.59375 3.921875 C30.50192729 26.26550441 46.65552642 59.90951703 49.234375 93.9296875 C49.91712922 108.4817236 49.40150394 122.69030118 46.234375 136.9296875 C46.00089355 137.9813208 46.00089355 137.9813208 45.76269531 139.05419922 C41.62424536 156.73554078 33.34949905 173.61356483 22.234375 187.9296875 C21.50476563 188.87972656 20.77515625 189.82976562 20.0234375 190.80859375 C12.39689755 200.42873801 3.98688769 208.69100308 -5.85620117 216 C-11.25200238 220.06707072 -15.67406907 224.31342384 -17.765625 230.9296875 C-17.99659404 233.60174815 -18.13666443 236.1816058 -18.1796875 238.85546875 C-18.19905365 239.60305954 -18.2184198 240.35065033 -18.2383728 241.12089539 C-18.29786418 243.49454556 -18.34443092 245.86824504 -18.390625 248.2421875 C-18.42883289 249.85744232 -18.46788625 251.47267737 -18.5078125 253.08789062 C-18.6035403 257.0349946 -18.68768267 260.98219389 -18.765625 264.9296875 C-17.74082031 264.89488281 -16.71601563 264.86007812 -15.66015625 264.82421875 C-14.29949564 264.79606715 -12.9388172 264.76876846 -11.578125 264.7421875 C-10.90458984 264.71705078 -10.23105469 264.69191406 -9.53710938 264.66601562 C-5.05706833 264.60045405 -2.30524866 265.15363896 1.234375 267.9296875 C4.5670659 272.92872384 4.3931718 277.8666039 4.40234375 283.73046875 C4.40567215 284.48450485 4.40900055 285.23854095 4.41242981 286.01542664 C4.41748219 287.61322423 4.41983866 289.21103232 4.41967773 290.80883789 C4.42183358 293.19631627 4.43992087 295.58330829 4.45898438 297.97070312 C4.51540415 312.93952079 3.74641839 327.17234114 -2.765625 340.9296875 C-3.23613281 341.92484375 -3.70664062 342.92 -4.19140625 343.9453125 C-13.19130475 361.00715482 -28.18919422 371.5700166 -46.28800964 377.26547813 C-53.85412373 379.47380427 -61.24124733 379.65733931 -69.078125 379.59375 C-70.58634834 379.59713473 -72.09456899 379.60200091 -73.6027832 379.60824585 C-76.73578326 379.61553976 -79.86806169 379.6051588 -83.00097656 379.58154297 C-86.96787504 379.55305829 -90.93308084 379.56950337 -94.8999176 379.59940529 C-98.00602411 379.6176844 -101.11174531 379.61162758 -104.21786499 379.59876633 C-105.67833672 379.59548876 -107.13884635 379.59931402 -108.59927368 379.61116409 C-127.06474346 379.72820512 -143.87606706 374.18676569 -157.42578125 361.2578125 C-158.19792969 360.48953125 -158.97007812 359.72125 -159.765625 358.9296875 C-160.81556641 357.93195313 -160.81556641 357.93195313 -161.88671875 356.9140625 C-178.13484543 340.31753544 -179.95216848 318.13368342 -180.00585938 296.15844727 C-180.01564939 293.73615226 -180.04681212 291.3146783 -180.078125 288.89257812 C-180.08465 287.32812994 -180.08990244 285.76367581 -180.09375 284.19921875 C-180.1060968 283.48756058 -180.1184436 282.7759024 -180.13116455 282.04267883 C-180.10879687 276.93995727 -179.31000054 272.41582118 -176.765625 267.9296875 C-172.89953338 264.43441106 -168.93204121 264.55637149 -163.953125 264.7421875 C-163.26025391 264.75572266 -162.56738281 264.76925781 -161.85351562 264.78320312 C-160.15721235 264.81829905 -158.46131364 264.87209807 -156.765625 264.9296875 C-156.81004543 260.23337592 -156.88015283 255.53837487 -156.97314453 250.84277344 C-157.00121082 249.24847903 -157.02249613 247.65404918 -157.03662109 246.05957031 C-157.01436091 232.48353564 -157.01436091 232.48353564 -163.5546875 220.8984375 C-164.46347656 220.17140625 -164.46347656 220.17140625 -165.390625 219.4296875 C-166.09058594 218.85476563 -166.79054687 218.27984375 -167.51171875 217.6875 C-169.02080844 216.51056697 -170.5338797 215.33872235 -172.05078125 214.171875 C-201.0499698 191.63266829 -219.74930718 159.20533825 -224.34765625 122.65625 C-228.07368649 86.21700358 -219.33270842 48.4056545 -196.1015625 19.59375 C-172.71465045 -8.84814564 -140.34472598 -26.83751254 -103.50878906 -30.84326172 C-65.92267297 -33.9542521 -29.20241944 -24.40067933 0 0 Z " fill="#F2CA03" transform="translate(343.765625,133.0703125)"/>
<path d="M0 0 C0.68678109 -0.00467997 1.37356218 -0.00935994 2.08115482 -0.01418173 C4.37583453 -0.02612035 6.66991577 -0.01667935 8.96459961 -0.00723267 C10.61237943 -0.01129888 12.26015653 -0.01664105 13.90792847 -0.02316284 C18.37896793 -0.0368363 22.84979966 -0.03153768 27.32084274 -0.02202559 C32.00035918 -0.01442915 36.67985786 -0.02147455 41.359375 -0.02618408 C49.21772453 -0.03164168 57.07598948 -0.02444991 64.93432617 -0.01016235 C74.01901942 0.00616417 83.10351069 0.00087566 92.18819904 -0.01564157 C99.98875565 -0.02925631 107.78925145 -0.03117615 115.58981609 -0.02332556 C120.24847919 -0.01864899 124.90704735 -0.01802378 129.56570435 -0.02793503 C133.94554218 -0.03660224 138.32511964 -0.03058731 142.70492935 -0.01325226 C144.31216118 -0.0092861 145.91941493 -0.01042369 147.52663803 -0.01704025 C149.72101656 -0.02524099 151.91456129 -0.01495292 154.10888672 0 C155.95056679 0.00169662 155.95056679 0.00169662 157.82945251 0.00342751 C161.37786177 0.41881089 163.22617482 1.2332683 166.05444336 3.38095093 C169.38713426 8.37998727 169.21324016 13.31786732 169.22241211 19.18173218 C169.22574051 19.93576828 169.22906891 20.68980438 169.23249817 21.46669006 C169.23755055 23.06448765 169.23990702 24.66229575 169.23974609 26.26010132 C169.24190194 28.6475797 169.25998923 31.03457171 169.27905273 33.42196655 C169.33547251 48.39078421 168.56648675 62.62360457 162.05444336 76.38095093 C161.58393555 77.37610718 161.11342773 78.37126343 160.62866211 79.39657593 C151.62876361 96.45841825 136.63087414 107.02128003 118.53205872 112.71674156 C110.96594463 114.9250677 103.57882103 115.10860274 95.74194336 115.04501343 C94.23372002 115.04839815 92.72549937 115.05326434 91.21728516 115.05950928 C88.0842851 115.06680319 84.95200667 115.05642223 81.8190918 115.0328064 C77.85219332 115.00432172 73.88698752 115.0207668 69.92015076 115.05066872 C66.81404425 115.06894782 63.70832305 115.06289101 60.60220337 115.05002975 C59.14173164 115.04675219 57.68122201 115.05057745 56.22079468 115.06242752 C37.7553249 115.17946855 20.9440013 109.63802912 7.39428711 96.70907593 C6.23606445 95.55665405 6.23606445 95.55665405 5.05444336 94.38095093 C4.35448242 93.71579468 3.65452148 93.05063843 2.93334961 92.36532593 C-13.31477707 75.76879887 -15.13210012 53.58494685 -15.18579102 31.60971069 C-15.19558103 29.18741569 -15.22674376 26.76594173 -15.25805664 24.34384155 C-15.26458164 22.77939337 -15.26983408 21.21493924 -15.27368164 19.65048218 C-15.28602844 18.93882401 -15.29837524 18.22716583 -15.31109619 17.49394226 C-15.28940314 12.54512407 -14.68292832 7.61445409 -11.94555664 3.38095093 C-7.91496486 0.3897552 -4.96582627 0.00457468 0 0 Z " fill="#02B8B9" transform="translate(178.945556640625,397.6190490722656)"/>
<path d="M0 0 C1.44901703 -0.0098568 1.44901703 -0.0098568 2.92730713 -0.01991272 C6.13415601 -0.03967357 9.34095798 -0.05131485 12.54785156 -0.0612793 C14.18875134 -0.06739259 14.18875134 -0.06739259 15.8628006 -0.07362938 C21.65332349 -0.09450252 27.4438226 -0.10879857 33.234375 -0.11816406 C39.21780774 -0.12922795 45.20086852 -0.16362438 51.18416977 -0.20333576 C55.78241673 -0.22947378 60.38057474 -0.23785344 64.97888947 -0.24144554 C67.18449667 -0.24631917 69.3900997 -0.25795513 71.59563446 -0.27648354 C74.68384807 -0.30081334 77.77109502 -0.29992088 80.859375 -0.29296875 C81.76973511 -0.30577881 82.68009521 -0.31858887 83.61804199 -0.33178711 C89.27836689 -0.28537059 92.33088786 0.49607969 96.68847656 4.17700195 C99.04090003 7.38485213 99.15689746 10.27349447 98.68847656 14.17700195 C96.64853748 17.83482376 95.18428395 19.8464637 91.68847656 22.17700195 C88.71456596 22.34922543 85.83644738 22.40894396 82.86425781 22.37231445 C82.0028569 22.36948456 81.14145599 22.36665466 80.25395203 22.36373901 C77.50281887 22.35254433 74.75201131 22.32744116 72.00097656 22.30200195 C70.13574689 22.29197123 68.27051211 22.28284554 66.40527344 22.2746582 C61.83288237 22.25260733 57.26073467 22.21808244 52.68847656 22.17700195 C52.69308553 22.84145639 52.69769449 23.50591084 52.70244312 24.19050026 C52.81291255 40.36554847 52.89562815 56.54047703 52.94753742 72.71581459 C52.97330828 80.53813864 53.00843704 88.36021073 53.06567383 96.18237305 C53.11554351 103.00097936 53.14777572 109.81940319 53.15891904 116.63818681 C53.16543192 120.24807159 53.18071453 123.85743434 53.21712685 127.46715164 C53.2574675 131.4990876 53.25842374 135.53011871 53.25610352 139.56225586 C53.2740799 140.75628021 53.29205627 141.95030457 53.31057739 143.18051147 C53.25428025 152.20735583 53.25428025 152.20735583 50.34049988 155.90292358 C47.22369983 158.57554245 45.42696016 159.09340004 41.37597656 159.55200195 C36.48545955 159.05466124 35.11763164 157.60615703 31.68847656 154.17700195 C30.41443734 151.62892351 30.56547307 149.85462369 30.56822205 147.00119019 C30.56684738 145.90460083 30.56547272 144.80801147 30.5640564 143.67819214 C30.56944931 141.86558395 30.56944931 141.86558395 30.57495117 140.01635742 C30.57480515 138.7481012 30.57465912 137.47984497 30.57450867 136.17315674 C30.57422108 132.6899011 30.58011156 129.20667972 30.58708262 125.72343206 C30.59332259 122.08524593 30.59392047 118.44705907 30.59510803 114.80886841 C30.59821944 107.91698018 30.60643028 101.02510777 30.61645752 94.13322651 C30.62762454 86.28810788 30.6331306 78.44298851 30.63815296 70.59786391 C30.64861305 54.45756733 30.66620883 38.31728666 30.68847656 22.17700195 C28.86473511 22.21627808 28.86473511 22.21627808 27.00415039 22.25634766 C22.48496976 22.34697955 17.96586913 22.40429843 13.44604492 22.45166016 C11.49148033 22.47677476 9.53700939 22.51087327 7.58276367 22.55419922 C4.77010988 22.6149863 1.95869954 22.64324178 -0.85449219 22.6652832 C-1.72551071 22.69108963 -2.59652924 22.71689606 -3.49394226 22.7434845 C-7.92051067 22.745522 -9.73081573 22.62626047 -13.34008789 19.83398438 C-16.44785205 15.6455265 -16.83389542 12.31365974 -16.31152344 7.17700195 C-12.07076786 0.07215399 -7.68293411 0.0224928 0 0 Z " fill="#A67900" transform="translate(214.3115234375,204.822998046875)"/>
<path d="M0 0 C3.57236674 1.9270028 5.69560702 4.08682105 7 8 C7.56604249 12.77092956 7.62908803 15.69897087 4.75 19.625 C3.52237258 21.10221597 2.26798824 22.55727968 1 24 C0.08056533 25.07557152 -0.83727828 26.15250429 -1.75390625 27.23046875 C-3.81629053 29.65002947 -5.88936713 32.05988305 -7.96875 34.46484375 C-10.63579485 37.55992249 -13.23648572 40.70350297 -15.8125 43.875 C-27.14147938 57.79934556 -27.14147938 57.79934556 -31.20703125 58.23828125 C-38.24770268 58.43884011 -38.24770268 58.43884011 -42 56.25 C-44.97870059 52.89896183 -45.87462312 51.12839194 -46.375 46.625 C-45.70178986 40.11730198 -40.97321394 35.61988089 -36.8125 30.8125 C-35.83131364 29.66597832 -34.85085548 28.51883309 -33.87109375 27.37109375 C-33.38624512 26.80374512 -32.90139648 26.23639648 -32.40185547 25.65185547 C-30.36354172 23.25003888 -28.36708739 20.81521952 -26.375 18.375 C-25.65699219 17.49714844 -24.93898438 16.61929688 -24.19921875 15.71484375 C-22.6481079 13.80006215 -21.11024565 11.87451106 -19.58203125 9.94140625 C-18.79183594 8.95011719 -18.00164062 7.95882812 -17.1875 6.9375 C-16.47980469 6.03902344 -15.77210938 5.14054687 -15.04296875 4.21484375 C-10.79211979 -0.39362922 -6.0397907 -1.04494649 0 0 Z " fill="#A67800" transform="translate(407,53)"/>
<path d="M0 0 C4.01901499 1.94128347 6.34141729 4.31546307 9.0625 7.8125 C12.59082784 12.26100637 16.21191412 16.59075473 19.9375 20.875 C23.99189356 25.56488048 27.90935007 30.3344688 31.6875 35.25 C32.3206311 36.07346924 32.3206311 36.07346924 32.96655273 36.91357422 C36.61128898 41.70883956 37.23774183 43.83782662 36.515625 49.73828125 C35.79061335 52.91844601 34.31565187 54.7545194 32 57 C28.22587879 58.8870606 24.10162865 58.61958137 20 58 C14.28154916 55.12900822 10.35248183 48.94674468 6.45703125 44.0625 C3.84123671 40.8021138 1.15046108 37.61682443 -1.5625 34.4375 C-16.32079962 17.07267347 -16.32079962 17.07267347 -16.21875 10.03125 C-15.80661101 6.20424507 -13.86270018 3.96224251 -11.375 1.1875 C-7.72041832 -0.63979084 -4.00187741 -0.68834991 0 0 Z " fill="#A67800" transform="translate(114,53)"/>
<path d="M0 0 C0.87148682 0.49298584 1.74297363 0.98597168 2.64086914 1.49389648 C3.61209717 2.03868652 4.5833252 2.58347656 5.58398438 3.14477539 C6.58373291 3.71244629 7.58348145 4.28011719 8.61352539 4.86499023 C10.51958788 5.92652491 12.42583633 6.98772576 14.33227539 8.04858398 C16.25984592 9.13235334 18.18692808 10.21699175 20.11352539 11.30249023 C21.0687207 11.83680664 22.02391602 12.37112305 23.00805664 12.92163086 C27.9299299 15.69559596 32.81660763 18.52842282 37.64477539 21.46264648 C38.52713867 21.99510986 39.40950195 22.52757324 40.31860352 23.07617188 C42.92572524 25.10834005 44.17885279 26.90063551 45.61352539 29.86499023 C46.14985428 34.87072656 45.72060762 37.87017023 42.61352539 41.86499023 C39.52752765 44.84457426 36.8902793 45.7004997 32.61352539 45.86499023 C25.50737026 43.66375699 19.41666388 40.03619807 13.05102539 36.23999023 C11.99633057 35.61552002 10.94163574 34.9910498 9.85498047 34.34765625 C7.74772573 33.09908567 5.64181771 31.84823902 3.53735352 30.5949707 C0.9761898 29.07957273 -1.59739777 27.59142151 -4.18334961 26.11889648 C-4.87356201 25.7207373 -5.56377441 25.32257813 -6.27490234 24.91235352 C-8.06551485 23.87947387 -9.86058803 22.85433794 -11.65600586 21.82983398 C-14.58742467 19.72038669 -15.89620067 18.13134406 -17.38647461 14.86499023 C-17.92981314 9.97494347 -17.90756565 7.86995152 -15.63647461 3.48999023 C-11.32359323 -1.5417047 -6.30751487 -2.99986052 0 0 Z " fill="#A67800" transform="translate(419.386474609375,319.135009765625)"/>
<path d="M0 0 C3.05357079 1.61320721 5.23833566 3.03060902 7.375 5.75 C8.32843894 9.18238017 8.73054097 12.52064385 8 16 C5.28585872 20.76258006 2.75178552 23.16336739 -2.0234375 25.8046875 C-2.60606354 26.13236115 -3.18868958 26.46003479 -3.78897095 26.79763794 C-5.64381947 27.8369525 -7.50876366 28.85630357 -9.375 29.875 C-10.58797866 30.54945377 -11.80022477 31.22522673 -13.01171875 31.90234375 C-14.82991081 32.91774376 -16.64939075 33.93021127 -18.47454834 34.93304443 C-21.62006958 36.66170385 -24.7382913 38.42329482 -27.82519531 40.25488281 C-28.75980087 40.80512619 -28.75980087 40.80512619 -29.71328735 41.3664856 C-31.43471977 42.38365773 -33.15041747 43.4105172 -34.86572266 44.43798828 C-38.05226837 46.02604869 -40.46007871 46.74990019 -44 47 C-47.94898501 45.66136101 -51.44334808 44.40886922 -54 41 C-55.5285463 36.41436109 -55.76346552 32.69393912 -53.75 28.2265625 C-50.15723723 23.14467845 -44.00736801 20.60664348 -38.6875 17.6875 C-37.50817321 17.02741305 -36.32970837 16.36578381 -35.15209961 15.70263672 C-32.83198342 14.39645445 -30.50930978 13.09535928 -28.18457031 11.79736328 C-22.93390843 8.83390324 -17.79955836 5.68997034 -12.66015625 2.5390625 C-8.30382255 0.01865798 -4.99649109 -0.42343145 0 0 Z " fill="#A67800" transform="translate(102,318)"/>
<path d="M0 0 C3.64990544 2.12911151 5.42021331 4.13779184 7 8 C7.26069641 10.42149353 7.26069641 10.42149353 7.2746582 13.14819336 C7.28895622 14.68515114 7.28895622 14.68515114 7.30354309 16.25315857 C7.30263168 17.35426468 7.30172028 18.45537079 7.30078125 19.58984375 C7.30506638 20.72651993 7.3093515 21.86319611 7.31376648 23.03431702 C7.31950791 25.4375034 7.32001143 27.84070716 7.31567383 30.24389648 C7.31251499 33.92006081 7.33597256 37.59541961 7.36132812 41.27148438 C7.36360124 43.60676982 7.36430456 45.94205743 7.36328125 48.27734375 C7.372491 49.37642563 7.38170074 50.47550751 7.39118958 51.6078949 C7.38496078 52.63568558 7.37873199 53.66347626 7.37231445 54.72241211 C7.37294388 55.62301865 7.3735733 56.52362518 7.3742218 57.45152283 C6.74976589 61.70411217 4.37891806 65.35345827 1 68 C-3.19199287 69.24032748 -6.85112902 69.49950912 -10.875 67.75 C-15.75675676 63.72972973 -15.75675676 63.72972973 -17 60 C-17.10714929 58.32945975 -17.15867307 56.65507386 -17.17700195 54.98120117 C-17.18983719 53.95971481 -17.20267242 52.93822845 -17.21589661 51.88578796 C-17.22328354 50.78265762 -17.23067047 49.67952728 -17.23828125 48.54296875 C-17.246353 47.4072493 -17.25442474 46.27152985 -17.26274109 45.10139465 C-17.27657793 42.69643682 -17.28730187 40.29145939 -17.29516602 37.88647461 C-17.31238355 34.21234887 -17.35627539 30.53912178 -17.40039062 26.86523438 C-17.41051723 24.52865245 -17.41903343 22.19206288 -17.42578125 19.85546875 C-17.44328934 18.7584111 -17.46079742 17.66135345 -17.47883606 16.53105164 C-17.4613735 10.37740915 -17.20173004 6.63562239 -13 2 C-8.7567553 -0.8288298 -4.98265471 -0.65268001 0 0 Z " fill="#A67800" transform="translate(261,0)"/>
<path d="M0 0 C2.82609913 3.39131895 3.75576635 5.17689718 4.25 9.625 C3.80560645 13.92080432 2.57908706 15.92783589 -0.125 19.25 C-2.93069143 21.12046095 -4.16901522 21.62418766 -7.34594727 22.21142578 C-8.61856163 22.45144821 -8.61856163 22.45144821 -9.91688538 22.69631958 C-10.83247726 22.86098724 -11.74806915 23.02565491 -12.69140625 23.1953125 C-13.64007065 23.37005096 -14.58873505 23.54478943 -15.56614685 23.724823 C-17.57706463 24.09302865 -19.58864912 24.45760876 -21.60083008 24.81884766 C-24.6534701 25.36886854 -27.70267568 25.93557683 -30.75195312 26.50390625 C-32.71075165 26.8603977 -34.66973097 27.21589744 -36.62890625 27.5703125 C-37.98103966 27.82338669 -37.98103966 27.82338669 -39.36048889 28.08157349 C-46.12138056 29.2754289 -53.47466404 30.57033428 -60.0625 28.1875 C-62.86428307 25.55552196 -64.42674479 23.00042233 -65.125 19.25 C-64.95199998 14.78960827 -64.34630352 11.48732756 -61.15258789 8.25170898 C-57.1186082 5.58461767 -53.36580762 4.93879268 -48.65234375 4.109375 C-47.73344864 3.93746643 -46.81455353 3.76555786 -45.86781311 3.58843994 C-43.92498773 3.2285603 -41.98079547 2.87599269 -40.03540039 2.53027344 C-37.09328311 2.00549075 -34.1571621 1.45391046 -31.22070312 0.8984375 C-6.5488466 -3.6673541 -6.5488466 -3.6673541 0 0 Z " fill="#A67800" transform="translate(488.125,189.75)"/>
<path d="M0 0 C2.63897708 0.48839087 5.28102719 0.95630354 7.92407227 1.42211914 C9.62416079 1.73015919 11.3240389 2.03936325 13.02368164 2.34985352 C14.19263725 2.55630241 14.19263725 2.55630241 15.38520813 2.766922 C20.87022566 3.80185978 26.50268237 5.01436878 30.69165039 8.92407227 C32.99200769 13.52478687 33.16326188 17.01870063 31.69165039 21.92407227 C29.59412427 25.55978422 28.74199859 26.75426547 24.81665039 28.17407227 C17.87688458 28.70196851 11.20354996 27.80099049 4.39086914 26.56469727 C3.44025101 26.3966156 2.48963287 26.22853394 1.51020813 26.05535889 C-0.48130983 25.70002933 -2.47201738 25.34012951 -4.46191406 24.97583008 C-7.50230048 24.4228991 -10.54643657 23.89556203 -13.59155273 23.36938477 C-15.53519096 23.01936718 -17.47856105 22.66785667 -19.42163086 22.31469727 C-20.32690018 22.16035217 -21.23216949 22.00600708 -22.16487122 21.84698486 C-27.93380142 20.75976485 -31.91075077 19.31242304 -35.49584961 14.36157227 C-36.83365584 10.10491608 -36.77995421 6.48660238 -34.93334961 2.42407227 C-26.98961004 -7.78930719 -11.01879479 -2.04609702 0 0 Z " fill="#A67800" transform="translate(56.183349609375,190.825927734375)"/>
</svg>
